curl
version=1
nRows=145
nColumns=3
inDegrees=yes
endheader
time	r_shoulder_elev	r_elbow_flex
8.7900	41.761173	128.000000
8.8000	41.939649	128.000000
8.8100	42.148077	128.000000
8.8200	42.385415	128.000000
8.8300	42.650321	128.000000
8.8400	42.941168	128.000000
8.8500	43.256070	128.000000
8.8600	43.592903	128.000000
8.8700	43.949330	128.000000
8.8800	44.322829	128.000000
8.8900	44.710719	128.000000
8.9000	45.110192	128.000000
8.9100	45.518342	128.000000
8.9200	45.932192	128.000000
8.9300	46.348727	128.000000
8.9400	46.764926	128.000000
8.9500	47.177783	128.000000
8.9600	47.584344	128.000000
8.9700	47.981727	128.000000
8.9800	48.367150	128.000000
8.9900	48.737953	128.000000
9.0000	49.091620	128.000000
9.0100	49.425793	128.000000
9.0200	49.738297	128.000000
9.0300	50.027144	128.000000
9.0400	50.290553	128.000000
9.0500	50.526951	128.000000
9.0600	50.734987	128.000000
9.0700	50.913533	128.000000
9.0800	51.061684	128.000000
9.0900	51.178763	128.000000
9.1000	51.264312	128.000000
9.1100	51.318095	128.000000
9.1200	51.340084	127.928763
9.1300	51.330457	126.762543
9.1400	51.289583	125.640942
9.1500	51.218013	124.566261
9.1600	51.116466	123.539858
9.1700	50.985814	122.562134
9.1800	50.827067	121.632544
9.1900	50.641355	120.749618
9.2000	50.429915	119.911011
9.2100	50.194071	119.113570
9.2200	49.935217	118.353412
9.2300	49.654798	117.626023
9.2400	49.354299	116.926370
9.2500	49.035222	116.249016
9.2600	48.699070	115.588242
9.2700	48.347337	114.938175
9.2800	47.981488	114.292909
9.2900	47.602948	113.646626
9.3000	47.213088	112.993702
9.3100	46.813215	112.328809
9.3200	46.404565	111.647005
9.3300	45.988289	110.943804
9.3400	45.565453	110.215232
9.3500	45.137031	109.457871
9.3600	44.703902	108.668881
9.3700	44.266852	107.846011
9.3800	43.826573	106.987586
9.3900	43.383670	106.092490
9.4000	42.938662	105.160133
9.4100	42.491992	104.190401
9.4200	42.044037	103.183606
9.4300	41.595114	102.140425
9.4400	41.145490	101.061835
9.4500	40.695396	99.949047
9.4600	40.245037	98.803435
9.4700	39.794600	97.626478
9.4800	39.344268	96.419689
9.4900	38.894225	95.184565
9.5000	38.444671	93.922527
9.5100	37.995821	92.634886
9.5200	37.547919	91.322795
9.5300	37.101236	89.987226
9.5400	36.656077	88.628947
9.5500	36.212780	87.248513
9.5600	35.771717	85.846257
9.5700	35.333295	84.422300
9.5800	34.897950	82.976561
9.5900	34.466148	81.508779
9.6000	34.038378	80.018535
9.6100	33.615152	78.505291
9.6200	33.196996	76.968420
9.6300	32.784450	75.407249
9.6400	32.378060	73.821102
9.6500	31.978372	72.209343
9.6600	31.585930	70.571424
9.6700	31.201266	68.906925
9.6800	30.824899	67.215603
9.6900	30.457324	65.497430
9.7000	30.099008	63.752636
9.7100	29.750380	61.981744
9.7200	29.411830	60.185598
9.7300	29.083696	58.365398
9.7400	28.766258	56.522712
9.7500	28.459736	54.659499
9.7600	28.164276	52.778110
9.7700	27.879954	50.881292
9.7800	27.606766	48.972182
9.7900	27.344627	47.054288
9.8000	27.093371	45.131470
9.8100	26.852749	43.207908
9.8200	26.622431	41.288067
9.8300	26.402012	39.376649
9.8400	26.191012	37.478551
9.8500	25.988885	35.598806
9.8600	25.795023	33.742531
9.8700	25.608766	31.914862
9.8800	25.429413	30.120904
9.8900	25.256227	28.365662
9.9000	25.088448	26.653989
9.9100	24.925305	24.990529
9.9200	24.766026	23.379662
9.9300	24.609850	21.825461
9.9400	24.456035	20.331646
9.9500	24.303878	18.901544
9.9600	24.152715	17.538062
9.9700	24.001941	16.243657
9.9800	23.851011	15.020319
9.9900	23.699456	13.869559
10.0000	23.546886	12.792399
10.0100	23.392994	11.789377
10.0200	23.237567	10.860547
10.0300	23.080483	10.005496
10.0400	22.921717	9.223358
10.0500	22.761335	8.512834
10.0600	22.599500	7.872223
10.0700	22.436462	7.299448
10.0800	22.272558	6.792089
10.0900	22.108202	6.347422
10.1000	21.943886	5.962451
10.1100	21.780163	5.633950
10.1200	21.617645	5.358501
10.1300	21.456993	5.132535
10.1400	21.298906	4.952373
10.1500	21.144111	4.814261
10.1600	20.993359	4.714412
10.1700	20.847409	4.649044
10.1800	20.707023	4.614412
10.1900	20.572955	4.606846
10.2000	20.445946	4.622784
10.2100	20.326713	4.658801
10.2200	20.215945	4.711637
10.2300	20.114292	4.778225
